<mxfile modified="2021-10-29T11:23:02.361Z" host="app.diagrams.net" agent="5.0 (X11)" etag="nKt5XDsagzObqeL60EQ1" version="15.6.2" type="github">
  <diagram id="Ht1M8jgEwFfnCIfOTk4-" name="Page-1">
    <mxGraphModel dx="2062" dy="1146" grid="1" gridSize="10" guides="1" tooltips="1" connect="1" arrows="1" fold="1" page="1" pageScale="1" pageWidth="1169" pageHeight="827" math="0" shadow="0">
      <root>
        <mxCell id="0" />
        <mxCell id="1" parent="0" />
        <mxCell id="VlbZISmVs5P6DuMIeR8L-4" value="SSS_CIS" style="rounded=0;whiteSpace=wrap;html=1;fillColor=#B3F5EC;strokeColor=#666666;fontColor=#333333;" vertex="1" parent="1">
          <mxGeometry x="350" y="20" width="1140" height="170" as="geometry" />
        </mxCell>
        <mxCell id="VlbZISmVs5P6DuMIeR8L-28" style="edgeStyle=orthogonalEdgeStyle;rounded=0;orthogonalLoop=1;jettySize=auto;html=1;exitX=0.25;exitY=1;exitDx=0;exitDy=0;entryX=0.14;entryY=0.14;entryDx=0;entryDy=0;entryPerimeter=0;" edge="1" parent="1" source="VlbZISmVs5P6DuMIeR8L-23" target="VlbZISmVs5P6DuMIeR8L-12">
          <mxGeometry relative="1" as="geometry">
            <Array as="points">
              <mxPoint x="670" y="112" />
            </Array>
          </mxGeometry>
        </mxCell>
        <mxCell id="VlbZISmVs5P6DuMIeR8L-23" value="&lt;div&gt;CIS&lt;/div&gt;" style="rounded=0;whiteSpace=wrap;html=1;fillColor=#dae8fc;strokeColor=#6c8ebf;" vertex="1" parent="1">
          <mxGeometry x="410" y="30" width="1040" height="60" as="geometry" />
        </mxCell>
        <mxCell id="VlbZISmVs5P6DuMIeR8L-5" value="&lt;div&gt;SSS_MOD&lt;/div&gt;&lt;div&gt;&lt;br&gt;&lt;/div&gt;&lt;div&gt;&lt;br&gt;&lt;/div&gt;" style="rounded=0;whiteSpace=wrap;html=1;fillColor=#f5f5f5;fontColor=#333333;strokeColor=#666666;" vertex="1" parent="1">
          <mxGeometry x="300" y="310" width="380" height="420" as="geometry" />
        </mxCell>
        <mxCell id="VlbZISmVs5P6DuMIeR8L-20" value="" style="edgeStyle=orthogonalEdgeStyle;rounded=0;orthogonalLoop=1;jettySize=auto;html=1;" edge="1" parent="1" source="VlbZISmVs5P6DuMIeR8L-3" target="VlbZISmVs5P6DuMIeR8L-19">
          <mxGeometry relative="1" as="geometry" />
        </mxCell>
        <mxCell id="VlbZISmVs5P6DuMIeR8L-3" value="M4&amp;nbsp;&amp;nbsp;&amp;nbsp;&amp;nbsp;&amp;nbsp;&amp;nbsp;&amp;nbsp;&amp;nbsp; M7" style="html=1;outlineConnect=0;whiteSpace=wrap;fillColor=#99ffff;shape=mxgraph.archimate3.interaction;" vertex="1" parent="1">
          <mxGeometry x="440" y="547.5" width="85" height="85" as="geometry" />
        </mxCell>
        <mxCell id="VlbZISmVs5P6DuMIeR8L-11" value="" style="shape=flexArrow;endArrow=classic;html=1;rounded=0;exitX=0;exitY=0.5;exitDx=0;exitDy=0;entryX=1;entryY=0.5;entryDx=0;entryDy=0;fillColor=#a20025;strokeColor=none;shadow=0;sketch=0;" edge="1" parent="1" source="VlbZISmVs5P6DuMIeR8L-4" target="VlbZISmVs5P6DuMIeR8L-32">
          <mxGeometry width="50" height="50" relative="1" as="geometry">
            <mxPoint x="560" y="520" as="sourcePoint" />
            <mxPoint x="610" y="470" as="targetPoint" />
            <Array as="points">
              <mxPoint x="290" y="105" />
              <mxPoint x="250" y="160" />
              <mxPoint x="250" y="210" />
              <mxPoint x="310" y="260" />
              <mxPoint x="690" y="260" />
              <mxPoint x="780" y="350" />
              <mxPoint x="780" y="580" />
            </Array>
          </mxGeometry>
        </mxCell>
        <mxCell id="VlbZISmVs5P6DuMIeR8L-30" style="edgeStyle=orthogonalEdgeStyle;rounded=0;orthogonalLoop=1;jettySize=auto;html=1;exitX=0;exitY=0.5;exitDx=0;exitDy=0;exitPerimeter=0;entryX=1;entryY=0.5;entryDx=0;entryDy=0;" edge="1" parent="1" source="VlbZISmVs5P6DuMIeR8L-12" target="VlbZISmVs5P6DuMIeR8L-29">
          <mxGeometry relative="1" as="geometry" />
        </mxCell>
        <mxCell id="VlbZISmVs5P6DuMIeR8L-12" value="M7&amp;nbsp;&amp;nbsp;&amp;nbsp;&amp;nbsp;&amp;nbsp;&amp;nbsp;&amp;nbsp;&amp;nbsp; M4" style="html=1;outlineConnect=0;whiteSpace=wrap;fillColor=#99ffff;shape=mxgraph.archimate3.interaction;" vertex="1" parent="1">
          <mxGeometry x="770" y="100" width="85" height="85" as="geometry" />
        </mxCell>
        <mxCell id="VlbZISmVs5P6DuMIeR8L-27" style="edgeStyle=orthogonalEdgeStyle;rounded=0;orthogonalLoop=1;jettySize=auto;html=1;exitX=0;exitY=0.5;exitDx=0;exitDy=0;entryX=1;entryY=0.5;entryDx=0;entryDy=0;entryPerimeter=0;" edge="1" parent="1" source="VlbZISmVs5P6DuMIeR8L-14" target="VlbZISmVs5P6DuMIeR8L-12">
          <mxGeometry relative="1" as="geometry" />
        </mxCell>
        <mxCell id="VlbZISmVs5P6DuMIeR8L-14" value="DISPLAY" style="rounded=1;whiteSpace=wrap;html=1;fillColor=#9AC7BF;" vertex="1" parent="1">
          <mxGeometry x="1000" y="60" width="320" height="90" as="geometry" />
        </mxCell>
        <mxCell id="VlbZISmVs5P6DuMIeR8L-18" style="edgeStyle=orthogonalEdgeStyle;rounded=0;orthogonalLoop=1;jettySize=auto;html=1;exitX=0.5;exitY=1;exitDx=0;exitDy=0;entryX=0;entryY=0.5;entryDx=0;entryDy=0;entryPerimeter=0;" edge="1" parent="1" source="VlbZISmVs5P6DuMIeR8L-15" target="VlbZISmVs5P6DuMIeR8L-3">
          <mxGeometry relative="1" as="geometry" />
        </mxCell>
        <mxCell id="VlbZISmVs5P6DuMIeR8L-15" value="DISPLAY" style="rounded=1;whiteSpace=wrap;html=1;fillColor=#9AC7BF;" vertex="1" parent="1">
          <mxGeometry x="350" y="334" width="200" height="160" as="geometry" />
        </mxCell>
        <mxCell id="VlbZISmVs5P6DuMIeR8L-22" style="edgeStyle=orthogonalEdgeStyle;rounded=0;orthogonalLoop=1;jettySize=auto;html=1;exitX=0.5;exitY=1;exitDx=0;exitDy=0;" edge="1" parent="1" source="VlbZISmVs5P6DuMIeR8L-16" target="VlbZISmVs5P6DuMIeR8L-17">
          <mxGeometry relative="1" as="geometry" />
        </mxCell>
        <mxCell id="VlbZISmVs5P6DuMIeR8L-16" value="" style="ellipse;whiteSpace=wrap;html=1;aspect=fixed;fillColor=#9AC7BF;" vertex="1" parent="1">
          <mxGeometry x="585" y="334" width="60" height="60" as="geometry" />
        </mxCell>
        <mxCell id="VlbZISmVs5P6DuMIeR8L-21" style="edgeStyle=orthogonalEdgeStyle;rounded=0;orthogonalLoop=1;jettySize=auto;html=1;exitX=0.5;exitY=1;exitDx=0;exitDy=0;entryX=0.14;entryY=0.14;entryDx=0;entryDy=0;entryPerimeter=0;" edge="1" parent="1" source="VlbZISmVs5P6DuMIeR8L-17" target="VlbZISmVs5P6DuMIeR8L-3">
          <mxGeometry relative="1" as="geometry">
            <Array as="points">
              <mxPoint x="600" y="530" />
              <mxPoint x="452" y="530" />
            </Array>
          </mxGeometry>
        </mxCell>
        <mxCell id="VlbZISmVs5P6DuMIeR8L-17" value="" style="ellipse;whiteSpace=wrap;html=1;aspect=fixed;fillColor=#9AC7BF;" vertex="1" parent="1">
          <mxGeometry x="585" y="434" width="60" height="60" as="geometry" />
        </mxCell>
        <mxCell id="VlbZISmVs5P6DuMIeR8L-19" value="&lt;div&gt;CODEC&lt;/div&gt;&lt;div&gt;AUDIO&lt;br&gt;&lt;/div&gt;" style="shape=process;whiteSpace=wrap;html=1;backgroundOutline=1;fillColor=#f8cecc;strokeColor=#b85450;" vertex="1" parent="1">
          <mxGeometry x="550" y="560" width="55" height="60" as="geometry" />
        </mxCell>
        <mxCell id="VlbZISmVs5P6DuMIeR8L-31" style="edgeStyle=orthogonalEdgeStyle;rounded=0;orthogonalLoop=1;jettySize=auto;html=1;exitX=0;exitY=0.5;exitDx=0;exitDy=0;" edge="1" parent="1" source="VlbZISmVs5P6DuMIeR8L-29">
          <mxGeometry relative="1" as="geometry">
            <mxPoint x="360" y="110" as="targetPoint" />
            <Array as="points">
              <mxPoint x="400" y="143" />
              <mxPoint x="400" y="110" />
            </Array>
          </mxGeometry>
        </mxCell>
        <mxCell id="VlbZISmVs5P6DuMIeR8L-29" value="&lt;div&gt;ETH&lt;/div&gt;&lt;div&gt;PHY&lt;br&gt;&lt;/div&gt;" style="shape=process;whiteSpace=wrap;html=1;backgroundOutline=1;fillColor=#fff2cc;strokeColor=#d6b656;" vertex="1" parent="1">
          <mxGeometry x="450" y="113" width="60" height="60" as="geometry" />
        </mxCell>
        <mxCell id="VlbZISmVs5P6DuMIeR8L-33" style="edgeStyle=orthogonalEdgeStyle;rounded=0;orthogonalLoop=1;jettySize=auto;html=1;exitX=0;exitY=0.5;exitDx=0;exitDy=0;entryX=0.86;entryY=0.86;entryDx=0;entryDy=0;entryPerimeter=0;" edge="1" parent="1" source="VlbZISmVs5P6DuMIeR8L-32" target="VlbZISmVs5P6DuMIeR8L-3">
          <mxGeometry relative="1" as="geometry" />
        </mxCell>
        <mxCell id="VlbZISmVs5P6DuMIeR8L-32" value="&lt;div&gt;ETH&lt;/div&gt;&lt;div&gt;PHY&lt;br&gt;&lt;/div&gt;" style="shape=process;whiteSpace=wrap;html=1;backgroundOutline=1;fillColor=#fff2cc;strokeColor=#d6b656;" vertex="1" parent="1">
          <mxGeometry x="545" y="650" width="60" height="60" as="geometry" />
        </mxCell>
        <mxCell id="VlbZISmVs5P6DuMIeR8L-34" value="" style="ellipse;whiteSpace=wrap;html=1;aspect=fixed;fillColor=#B3F5EC;" vertex="1" parent="1">
          <mxGeometry x="630" y="530" width="30" height="30" as="geometry" />
        </mxCell>
        <mxCell id="VlbZISmVs5P6DuMIeR8L-35" value="" style="ellipse;whiteSpace=wrap;html=1;aspect=fixed;fillColor=#B3F5EC;" vertex="1" parent="1">
          <mxGeometry x="630" y="580" width="30" height="30" as="geometry" />
        </mxCell>
      </root>
    </mxGraphModel>
  </diagram>
</mxfile>
